<svg width="64" height="64" viewBox="0 0 64 64" fill="none" xmlns="http://www.w3.org/2000/svg">
  <rect width="64" height="64" rx="16" fill="#212121"/>
  <rect x="6.5" y="6.5" width="51" height="51" rx="13.5" stroke="rgba(255,255,255,0.12)"/>
  <path d="M21 16C21 14.8954 21.8954 14 23 14H35.8L44 22.2V46C44 47.1046 43.1046 48 42 48H23C21.8954 48 21 47.1046 21 46V16Z" fill="#181818" stroke="rgba(255,255,255,0.16)"/>
  <path d="M35.5 14V21C35.5 22.1046 36.3954 23 37.5 23H44" stroke="#22C1FF" stroke-width="2" stroke-linecap="round" stroke-linejoin="round"/>
  <path d="M27 28V40H30.2V33.1L35.8 40H38V28H34.8V34.9L29.2 28H27Z" fill="#F5F5F5"/>
  <path d="M27 43H37" stroke="rgba(255,255,255,0.35)" stroke-width="2.4" stroke-linecap="round"/>
</svg>
